<svg width="680" height="220" viewBox="0 0 680 220" xmlns="http://www.w3.org/2000/svg" role="img">
<title>Block signaling a 3 aspetti</title>
<desc>Tre segnali in sequenza: A verde (2 blocchi liberi davanti), B giallo (blocco successivo libero, il seguente occupato), C rosso (il blocco che protegge è occupato dal treno).</desc>
<defs>
<marker id="arrow" viewBox="0 0 10 10" refX="8" refY="5" markerWidth="6" markerHeight="6" orient="auto-start-reverse">
<path d="M2 1L8 5L2 9" fill="none" stroke="#3d3d3a" stroke-width="1.5" stroke-linecap="round" stroke-linejoin="round"/>
</marker>
</defs>
<rect width="680" height="220" fill="#ffffff"/>
<text x="30" y="24" font-family="sans-serif" font-size="12" fill="#73726c">senso di marcia</text>
<line x1="130" y1="20" x2="180" y2="20" stroke="#3d3d3a" stroke-width="1" marker-end="url(#arrow)"/>

<rect x="30" y="60" width="70" height="64" rx="8" fill="#EAF3DE" stroke="#639922" stroke-width="1"/>
<text x="65" y="86" font-family="sans-serif" font-size="14" font-weight="600" fill="#173404" text-anchor="middle">A</text>
<text x="65" y="104" font-family="sans-serif" font-size="12" fill="#27500A" text-anchor="middle">verde</text>
<line x1="100" y1="92" x2="118" y2="92" stroke="#3d3d3a" stroke-width="1" marker-end="url(#arrow)"/>

<rect x="118" y="60" width="70" height="64" rx="8" fill="#F1EFE8" stroke="#888780" stroke-width="1"/>
<text x="153" y="86" font-family="sans-serif" font-size="14" font-weight="600" fill="#2C2C2A" text-anchor="middle">B1</text>
<text x="153" y="104" font-family="sans-serif" font-size="12" fill="#444441" text-anchor="middle">libero</text>
<line x1="188" y1="92" x2="202" y2="92" stroke="#3d3d3a" stroke-width="1" marker-end="url(#arrow)"/>

<rect x="202" y="60" width="70" height="64" rx="8" fill="#FAEEDA" stroke="#BA7517" stroke-width="1"/>
<text x="237" y="86" font-family="sans-serif" font-size="14" font-weight="600" fill="#412402" text-anchor="middle">B</text>
<text x="237" y="104" font-family="sans-serif" font-size="12" fill="#633806" text-anchor="middle">giallo</text>
<line x1="272" y1="92" x2="286" y2="92" stroke="#3d3d3a" stroke-width="1" marker-end="url(#arrow)"/>

<rect x="286" y="60" width="70" height="64" rx="8" fill="#F1EFE8" stroke="#888780" stroke-width="1"/>
<text x="321" y="86" font-family="sans-serif" font-size="14" font-weight="600" fill="#2C2C2A" text-anchor="middle">B2</text>
<text x="321" y="104" font-family="sans-serif" font-size="12" fill="#444441" text-anchor="middle">libero</text>
<line x1="356" y1="92" x2="370" y2="92" stroke="#3d3d3a" stroke-width="1" marker-end="url(#arrow)"/>

<rect x="370" y="60" width="70" height="64" rx="8" fill="#FCEBEB" stroke="#A32D2D" stroke-width="1"/>
<text x="405" y="86" font-family="sans-serif" font-size="14" font-weight="600" fill="#501313" text-anchor="middle">C</text>
<text x="405" y="104" font-family="sans-serif" font-size="12" fill="#791F1F" text-anchor="middle">rosso</text>
<line x1="440" y1="92" x2="454" y2="92" stroke="#3d3d3a" stroke-width="1" marker-end="url(#arrow)"/>

<rect x="454" y="60" width="90" height="64" rx="8" fill="#FCEBEB" stroke="#A32D2D" stroke-width="1"/>
<text x="499" y="86" font-family="sans-serif" font-size="14" font-weight="600" fill="#501313" text-anchor="middle">B3</text>
<text x="499" y="104" font-family="sans-serif" font-size="12" fill="#791F1F" text-anchor="middle">treno</text>

<circle cx="40" cy="155" r="5" fill="#639922"/>
<text x="52" y="159" font-family="sans-serif" font-size="12" fill="#3d3d3a">verde: i 2 blocchi successivi sono entrambi liberi</text>
<circle cx="40" cy="177" r="5" fill="#BA7517"/>
<text x="52" y="181" font-family="sans-serif" font-size="12" fill="#3d3d3a">giallo: il prossimo blocco è libero, quello dopo è occupato</text>
<circle cx="40" cy="199" r="5" fill="#A32D2D"/>
<text x="52" y="203" font-family="sans-serif" font-size="12" fill="#3d3d3a">rosso: il blocco protetto da questo segnale è occupato</text>
</svg>
